<svg width="100" height="100" viewBox="0 0 100 100" fill="none" xmlns="http://www.w3.org/2000/svg">
<rect width="100" height="100" rx="5" fill="#FFCC00"/>
<path d="M20.511 41.106H27.572V44.878H26.652L22.213 52.836V55.228H23.363V59H14.623V55.228H15.773V52.836L11.196 44.878H10.276V41.106H19.177V44.878H18.372L19.729 48.443H19.959L21.316 44.878H20.511V41.106ZM41.9865 55.228H42.9065V59H33.8905V55.228H35.2705L34.9025 53.388H31.7745L31.4065 55.228H32.7865V59H24.9205V55.228H25.8405L29.7275 41.106H38.0995L41.9865 55.228ZM32.2805 50.95H34.3965L33.4535 46.373H33.2235L32.2805 50.95ZM69.0038 44.878H67.8538V55.228H69.0038V59H60.3098V55.228H61.4138V47.178L57.5038 59H54.0998L50.0748 47.293V55.228H51.1788V59H43.6348V55.228H44.7848V44.878H43.6348V41.106H54.1688L56.5608 48.282L58.8608 41.106H69.0038V44.878ZM86.7961 55.228H87.7161V59H78.7001V55.228H80.0801L79.7121 53.388H76.5841L76.2161 55.228H77.5961V59H69.7301V55.228H70.6501L74.5371 41.106H82.9091L86.7961 55.228ZM77.0901 50.95H79.2061L78.2631 46.373H78.0331L77.0901 50.95Z" fill="black"/>
</svg>
