<svg width="100" height="100" viewBox="0 0 100 100" fill="none" xmlns="http://www.w3.org/2000/svg">
<rect width="100" height="100" rx="5" fill="#FFCC00"/>
<path d="M12.511 40.106H19.572V43.878H18.652L14.213 51.836V54.228H15.363V58H6.623V54.228H7.773V51.836L3.196 43.878H2.276V40.106H11.177V43.878H10.372L11.729 47.443H11.959L13.316 43.878H12.511V40.106ZM33.9865 54.228H34.9065V58H25.8905V54.228H27.2705L26.9025 52.388H23.7745L23.4065 54.228H24.7865V58H16.9205V54.228H17.8405L21.7275 40.106H30.0995L33.9865 54.228ZM24.2805 49.95H26.3965L25.4535 45.373H25.2235L24.2805 49.95ZM61.0038 43.878H59.8538V54.228H61.0038V58H52.3098V54.228H53.4138V46.178L49.5038 58H46.0998L42.0748 46.293V54.228H43.1788V58H35.6348V54.228H36.7848V43.878H35.6348V40.106H46.1688L48.5608 47.282L50.8608 40.106H61.0038V43.878ZM61.9141 54.228H63.0641V43.901H61.9141V40.106H71.2521C73.8128 40.106 75.8444 40.8113 77.3471 42.222C78.8651 43.6173 79.6241 45.8943 79.6241 49.053C79.6241 52.2117 78.8651 54.4963 77.3471 55.907C75.8444 57.3023 73.8128 58 71.2521 58H61.9141V54.228ZM70.8381 54.228C71.3594 54.228 71.7504 54.09 72.0111 53.814C72.2718 53.538 72.4021 53.1087 72.4021 52.526V45.58C72.4021 44.4453 71.8808 43.878 70.8381 43.878H69.5041V54.228H70.8381ZM80.3995 54.228H81.5495V43.878H80.3995V40.106H90.9565C92.8731 40.106 94.3681 40.497 95.4415 41.279C96.5148 42.061 97.0515 43.1803 97.0515 44.637C97.0515 45.5417 96.8368 46.3083 96.4075 46.937C95.9781 47.5503 95.4721 48.018 94.8895 48.34C94.3221 48.6467 93.7701 48.8537 93.2335 48.961V49.191C94.3221 49.2983 95.3035 49.6433 96.1775 50.226C97.0515 50.8087 97.4885 51.8513 97.4885 53.354C97.4885 54.964 96.8828 56.1447 95.6715 56.896C94.4601 57.632 92.8885 58 90.9565 58H80.3995V54.228ZM89.2315 47.65C89.6761 47.65 90.0058 47.535 90.2205 47.305C90.4505 47.0597 90.5655 46.684 90.5655 46.178V45.35C90.5655 44.844 90.4505 44.476 90.2205 44.246C90.0058 44.0007 89.6761 43.878 89.2315 43.878H87.9895V47.65H89.2315ZM89.3925 54.228C89.8371 54.228 90.1668 54.113 90.3815 53.883C90.6115 53.6377 90.7265 53.262 90.7265 52.756V51.744C90.7265 51.238 90.6115 50.87 90.3815 50.64C90.1668 50.3947 89.8371 50.272 89.3925 50.272H87.9895V54.228H89.3925Z" fill="black"/>
</svg>
